<mxfile host="app.diagrams.net" agent="Mozilla/5.0 (Windows NT 10.0; Win64; x64; rv:143.0) Gecko/20100101 Firefox/143.0" version="28.2.5">
  <diagram name="Сторінка-1" id="qWwd7o4RMVuVh9MW8RbF">
    <mxGraphModel dx="1426" dy="759" grid="1" gridSize="10" guides="1" tooltips="1" connect="1" arrows="1" fold="1" page="1" pageScale="1" pageWidth="827" pageHeight="1169" math="0" shadow="0">
      <root>
        <mxCell id="0" />
        <mxCell id="1" parent="0" />
        <mxCell id="WTdnZhRfeulBwF51gP9u-3" value="" style="group" vertex="1" connectable="0" parent="1">
          <mxGeometry x="50" y="270" width="310" height="260" as="geometry" />
        </mxCell>
        <mxCell id="WTdnZhRfeulBwF51gP9u-1" value="&lt;div&gt;&amp;lt;&amp;lt;device&amp;gt;&amp;gt;:&lt;/div&gt;&lt;div&gt;Client PC:&lt;/div&gt;" style="verticalAlign=top;align=left;spacingTop=8;spacingLeft=2;spacingRight=12;shape=cube;size=10;direction=south;fontStyle=4;html=1;whiteSpace=wrap;" vertex="1" parent="WTdnZhRfeulBwF51gP9u-3">
          <mxGeometry width="310" height="260" as="geometry" />
        </mxCell>
        <mxCell id="WTdnZhRfeulBwF51gP9u-2" value="&lt;div&gt;&amp;lt;&amp;lt;execution environment&amp;gt;&amp;gt;:&lt;/div&gt;&lt;div&gt;E-mail client&lt;/div&gt;" style="verticalAlign=top;align=left;spacingTop=8;spacingLeft=2;spacingRight=12;shape=cube;size=10;direction=south;fontStyle=4;html=1;whiteSpace=wrap;" vertex="1" parent="WTdnZhRfeulBwF51gP9u-3">
          <mxGeometry x="82" y="80" width="146" height="100" as="geometry" />
        </mxCell>
        <mxCell id="WTdnZhRfeulBwF51gP9u-6" value="" style="group" vertex="1" connectable="0" parent="1">
          <mxGeometry x="500" y="60" width="250" height="200" as="geometry" />
        </mxCell>
        <mxCell id="WTdnZhRfeulBwF51gP9u-4" value="&lt;div&gt;&amp;lt;&amp;lt;device&amp;gt;&amp;gt;:&lt;/div&gt;&lt;div&gt;WebServer:&lt;/div&gt;" style="verticalAlign=top;align=left;spacingTop=8;spacingLeft=2;spacingRight=12;shape=cube;size=10;direction=south;fontStyle=4;html=1;whiteSpace=wrap;" vertex="1" parent="WTdnZhRfeulBwF51gP9u-6">
          <mxGeometry width="250" height="200" as="geometry" />
        </mxCell>
        <mxCell id="WTdnZhRfeulBwF51gP9u-5" value="&lt;div&gt;&amp;lt;&amp;lt;execution environment&amp;gt;&amp;gt;:&lt;/div&gt;&lt;div&gt;Gmail&lt;/div&gt;" style="verticalAlign=top;align=left;spacingTop=8;spacingLeft=2;spacingRight=12;shape=cube;size=10;direction=south;fontStyle=4;html=1;whiteSpace=wrap;" vertex="1" parent="WTdnZhRfeulBwF51gP9u-6">
          <mxGeometry x="52.5" y="55" width="145" height="90" as="geometry" />
        </mxCell>
        <mxCell id="WTdnZhRfeulBwF51gP9u-7" value="" style="group" vertex="1" connectable="0" parent="1">
          <mxGeometry x="500" y="300" width="250" height="200" as="geometry" />
        </mxCell>
        <mxCell id="WTdnZhRfeulBwF51gP9u-8" value="&lt;div&gt;&amp;lt;&amp;lt;device&amp;gt;&amp;gt;:&lt;/div&gt;&lt;div&gt;WebServer:&lt;/div&gt;" style="verticalAlign=top;align=left;spacingTop=8;spacingLeft=2;spacingRight=12;shape=cube;size=10;direction=south;fontStyle=4;html=1;whiteSpace=wrap;" vertex="1" parent="WTdnZhRfeulBwF51gP9u-7">
          <mxGeometry width="250" height="200" as="geometry" />
        </mxCell>
        <mxCell id="WTdnZhRfeulBwF51gP9u-9" value="&lt;div&gt;&amp;lt;&amp;lt;execution environment&amp;gt;&amp;gt;:&lt;/div&gt;&lt;div&gt;ukr.net&lt;/div&gt;" style="verticalAlign=top;align=left;spacingTop=8;spacingLeft=2;spacingRight=12;shape=cube;size=10;direction=south;fontStyle=4;html=1;whiteSpace=wrap;" vertex="1" parent="WTdnZhRfeulBwF51gP9u-7">
          <mxGeometry x="52.5" y="55" width="145" height="90" as="geometry" />
        </mxCell>
        <mxCell id="WTdnZhRfeulBwF51gP9u-10" value="" style="group" vertex="1" connectable="0" parent="1">
          <mxGeometry x="500" y="540" width="250" height="200" as="geometry" />
        </mxCell>
        <mxCell id="WTdnZhRfeulBwF51gP9u-11" value="&lt;div&gt;&amp;lt;&amp;lt;device&amp;gt;&amp;gt;:&lt;/div&gt;&lt;div&gt;WebServer:&lt;/div&gt;" style="verticalAlign=top;align=left;spacingTop=8;spacingLeft=2;spacingRight=12;shape=cube;size=10;direction=south;fontStyle=4;html=1;whiteSpace=wrap;" vertex="1" parent="WTdnZhRfeulBwF51gP9u-10">
          <mxGeometry width="250" height="200" as="geometry" />
        </mxCell>
        <mxCell id="WTdnZhRfeulBwF51gP9u-12" value="&lt;div&gt;&amp;lt;&amp;lt;execution environment&amp;gt;&amp;gt;:&lt;/div&gt;&lt;div&gt;i.ua&lt;/div&gt;" style="verticalAlign=top;align=left;spacingTop=8;spacingLeft=2;spacingRight=12;shape=cube;size=10;direction=south;fontStyle=4;html=1;whiteSpace=wrap;" vertex="1" parent="WTdnZhRfeulBwF51gP9u-10">
          <mxGeometry x="52.5" y="55" width="145" height="90" as="geometry" />
        </mxCell>
        <mxCell id="WTdnZhRfeulBwF51gP9u-16" style="edgeStyle=orthogonalEdgeStyle;rounded=0;orthogonalLoop=1;jettySize=auto;html=1;exitX=0;exitY=0;exitDx=105;exitDy=250;exitPerimeter=0;entryX=0.46;entryY=1;entryDx=0;entryDy=0;entryPerimeter=0;endArrow=none;endFill=0;" edge="1" parent="1" source="WTdnZhRfeulBwF51gP9u-8" target="WTdnZhRfeulBwF51gP9u-4">
          <mxGeometry relative="1" as="geometry" />
        </mxCell>
        <mxCell id="WTdnZhRfeulBwF51gP9u-17" style="edgeStyle=orthogonalEdgeStyle;rounded=0;orthogonalLoop=1;jettySize=auto;html=1;exitX=0;exitY=0;exitDx=105;exitDy=250;exitPerimeter=0;entryX=0;entryY=0;entryDx=105;entryDy=250;entryPerimeter=0;endArrow=none;endFill=0;" edge="1" parent="1" source="WTdnZhRfeulBwF51gP9u-8" target="WTdnZhRfeulBwF51gP9u-11">
          <mxGeometry relative="1" as="geometry" />
        </mxCell>
        <mxCell id="WTdnZhRfeulBwF51gP9u-19" style="edgeStyle=orthogonalEdgeStyle;rounded=0;orthogonalLoop=1;jettySize=auto;html=1;exitX=0;exitY=0;exitDx=105;exitDy=250;exitPerimeter=0;entryX=0.519;entryY=0;entryDx=0;entryDy=0;entryPerimeter=0;endArrow=none;endFill=0;" edge="1" parent="1" source="WTdnZhRfeulBwF51gP9u-8" target="WTdnZhRfeulBwF51gP9u-1">
          <mxGeometry relative="1" as="geometry" />
        </mxCell>
        <mxCell id="WTdnZhRfeulBwF51gP9u-20" value="SMPT, POP3,IMAP" style="edgeLabel;html=1;align=center;verticalAlign=middle;resizable=0;points=[];" vertex="1" connectable="0" parent="WTdnZhRfeulBwF51gP9u-19">
          <mxGeometry x="0.5432" relative="1" as="geometry">
            <mxPoint x="38" y="-15" as="offset" />
          </mxGeometry>
        </mxCell>
      </root>
    </mxGraphModel>
  </diagram>
</mxfile>
